<?xml version="1.0" encoding="UTF-8" standalone="no"?>
<!DOCTYPE svg PUBLIC "-//W3C//DTD SVG 1.1//EN" "http://www.w3.org/Graphics/SVG/1.1/DTD/svg11.dtd">
<svg width="100%" height="100%" viewBox="0 0 32 32" version="1.1" xmlns="http://www.w3.org/2000/svg" xmlns:xlink="http://www.w3.org/1999/xlink" xml:space="preserve" xmlns:serif="http://www.serif.com/" style="fill-rule:evenodd;clip-rule:evenodd;">
    <g id="Layer-1" serif:id="Layer 1">
        <g id="path3807-4" transform="matrix(0.916667,0,0,0.916667,5.85352,-4.287785)">
            <path d="M17,22C17,25.292 14.292,28 11,28C7.708,28 5,25.292 5,22C5,18.708 7.708,16 11,16C14.292,16 17,18.708 17,22Z" style="fill:rgb(0,255,0);fill-rule:nonzero;stroke:black;stroke-width:2.53px;"/>
        </g>
        <g transform="matrix(1.050505,0,0,1,-0.69234,0)">
            <path d="M30.208,3.694L30.208,8.915C30.208,10.355 29.095,11.525 27.723,11.525L21.546,11.525L16.366,16L17.437,11.525L16.193,11.525C14.822,11.525 13.708,10.355 13.708,8.915L13.708,3.694C13.708,2.253 14.822,1.083 16.193,1.083L27.723,1.083C29.095,1.083 30.208,2.253 30.208,3.694Z" style="fill:rgb(255,0,0);stroke:black;stroke-width:0.98px;stroke-linecap:round;stroke-linejoin:round;stroke-miterlimit:1.5;"/>
        </g>
    </g>
</svg>
